<svg viewBox="0 0 800 800" xmlns="http://www.w3.org/2000/svg"><path d="M605.4895682837954,843.0413634679562 L607.4292952260491,489.1036804466006 M574.0298761317381,861.2046252005694 L572.0367578044044,504.4290987023686 M605.4895682837954,843.0413634679562 L606.736060451947,843.8128424683566 M606.736060451947,843.8128424683566 L607.8692875144789,844.641271228623 M607.8692875144789,844.641271228623 L608.881431382484,845.5211792661822 M608.881431382484,845.5211792661822 L609.7654458988532,846.4467353566229 M609.7654458988532,846.4467353566229 L610.5151146797671,847.4117803044735 M610.5151146797671,847.4117803044735 L611.1250915818296,848.4098682994905 M611.1250915818296,848.4098682994905 L611.5909474530356,849.434302148641 M611.5909474530356,849.434302148641 L611.9092057017845,850.478181154657 M611.9092057017845,850.478181154657 L612.0773752294579,851.5344406522635 M612.0773752294579,851.5344406522635 L612.0939723869881,852.59590128519 M612.0939723869881,852.59590128519 L611.9585444919503,853.6553152000196 M611.9585444919503,853.6553152000196 L611.6716822030562,854.7054170166953 M611.6716822030562,854.7054170166953 L611.2350202859702,855.7389723608113 M611.2350202859702,855.7389723608113 L610.6512390996481,856.7488317910834 M610.6512390996481,856.7488317910834 L609.9240532257363,857.72797706525 M609.9240532257363,857.72797706525 L609.0581955657731,858.6695778323273 M609.0581955657731,858.6695778323273 L608.0593871432798,859.5670372807929 M608.0593871432798,859.5670372807929 L606.934310319287,860.4140454868495 M606.934310319287,860.4140454868495 L605.6905607614335,861.2046252005694 M605.6905607614335,861.2046252005694 L604.3366014507188,861.933178243144 M604.3366014507188,861.933178243144 L602.8817060045027,862.5945298997746 M602.8817060045027,862.5945298997746 L601.3358936050143,863.1839697341402 M601.3358936050143,863.1839697341402 L599.7098579018391,863.697287239558 M599.7098579018391,863.697287239558 L598.0148942269968,864.130809472969 M598.0148942269968,864.130809472969 L596.262810676462,864.4814268656363 M596.262810676462,864.4814268656363 L594.4658495212527,864.7466211879191 M594.4658495212527,864.7466211879191 L592.6365863520143,864.9244851827633 M592.6365863520143,864.9244851827633 L590.7878443674367,865.0137390959056 M590.7878443674367,865.0137390959056 L588.9325925257349,865.0137390959056 M588.9325925257349,865.0137390959056 L587.0838505411573,864.9244851827633 M587.0838505411573,864.9244851827633 L585.2545873719189,864.7466211879191 M585.2545873719189,864.7466211879191 L583.4576262167096,864.4814268656363 M583.4576262167096,864.4814268656363 L581.7055426661747,864.130809472969 M581.7055426661747,864.130809472969 L580.0105789913325,863.697287239558 M580.0105789913325,863.697287239558 L578.3845432881571,863.1839697341402 M578.3845432881571,863.1839697341402 L576.8387308886689,862.5945298997746 M576.8387308886689,862.5945298997746 L575.3838354424527,861.933178243144 M575.3838354424527,861.933178243144 L574.0298761317381,861.2046252005694 M607.4292952260491,489.1036804466006 L608.8317731029188,489.75362805364904 M608.8317731029188,489.75362805364904 L610.1072030158797,490.45165223415904 M610.1072030158797,490.45165223415904 L611.2467757869778,491.19316355698015 M611.2467757869778,491.19316355698015 L612.2425408750585,491.9732669379781 M612.2425408750585,491.9732669379781 L613.0874720155477,492.7867886142095 M613.0874720155477,492.7867886142095 L613.7755135840384,493.62831040295555 M613.7755135840384,493.62831040295555 L614.3016342368865,494.4921988633456 M614.3016342368865,494.4921988633456 L614.6618682034596,495.37264520102883 M614.6618682034596,495.37264520102883 L614.8533537652194,496.2636982334684 M614.8533537652194,496.2636982334684 L614.8743595434964,497.15930567566625 M614.8743595434964,497.15930567566625 L614.7243126304803,498.0533529411835 M614.7243126304803,498.0533529411835 L614.4038142481932,498.9397060947765 M614.4038142481932,498.9397060947765 L613.9146423458476,499.81225287240903 M613.9146423458476,499.81225287240903 L613.2597549781159,500.66494837995737 M613.2597549781159,500.66494837995737 L612.443279112807,501.49185444464564 M612.443279112807,501.49185444464564 L611.4704942276287,502.28718788378734 M611.4704942276287,502.28718788378734 L610.3477996202248,503.0453595515805 M610.3477996202248,503.0453595515805 L609.082685364031,503.7610199792792 M609.082685364031,503.7610199792792 L607.6836790887672,504.4290987023686 M607.6836790887672,504.4290987023686 L606.1602947854437,505.04484415906336 M606.1602947854437,505.04484415906336 L604.522969292222,505.60386193099805 M604.522969292222,505.60386193099805 L602.7829890247656,506.10214997386913 M602.7829890247656,506.10214997386913 L600.9524096156956,506.5361294751381 M600.9524096156956,506.5361294751381 L599.0439733655373,506.9026773580223 M599.0439733655373,506.9026773580223 L597.0710082381845,507.1991487384357 M597.0710082381845,507.1991487384357 L595.0473382437797,507.4234011314786 M595.0473382437797,507.4234011314786 L592.9871685227572,507.5738115248188 M592.9871685227572,507.5738115248188 L590.9049873085883,507.64929072400935 M590.9049873085883,507.64929072400935 L588.8154495845831,507.64929072400935 M588.8154495845831,507.64929072400935 L586.7332683704144,507.57381152481867 M586.7332683704144,507.57381152481867 L584.6730986493918,507.4234011314786 M584.6730986493918,507.4234011314786 L582.649428654987,507.1991487384357 M582.649428654987,507.1991487384357 L580.6764635276343,506.9026773580223 M580.6764635276343,506.9026773580223 L578.768027277476,506.5361294751381 M578.768027277476,506.5361294751381 L576.937447868406,506.10214997386913 M576.937447868406,506.10214997386913 L575.1974676009495,505.60386193099805 M575.1974676009495,505.60386193099805 L573.5601421077279,505.04484415906336 M573.5601421077279,505.04484415906336 L572.0367578044044,504.4290987023686 M574.0298761317381,861.2046252005694 L572.7861265738846,860.4140454868495 M572.7861265738846,860.4140454868495 L571.6610497498918,859.5670372807929 M571.6610497498918,859.5670372807929 L570.6622413273985,858.6695778323273 M570.6622413273985,858.6695778323273 L569.7963836674353,857.72797706525 M569.7963836674353,857.72797706525 L569.0691977935234,856.7488317910834 M569.0691977935234,856.7488317910834 L568.4854166072013,855.7389723608113 M568.4854166072013,855.7389723608113 L568.0487546901154,854.7054170166953 M568.0487546901154,854.7054170166953 L567.7618924012213,853.6553152000196 M567.7618924012213,853.6553152000196 L567.6264645061835,852.59590128519 M567.6264645061835,852.59590128519 L567.6430616637138,851.5344406522635 M567.6430616637138,851.5344406522635 L567.811231191387,850.4781811546569 M567.811231191387,850.4781811546569 L568.129489440136,849.434302148641 M568.129489440136,849.434302148641 L568.595345311342,848.4098682994905 M568.595345311342,848.4098682994905 L569.2053222134045,847.4117803044735 M569.2053222134045,847.4117803044735 L569.9549909943185,846.4467353566229 M569.9549909943185,846.4467353566229 L570.8390055106875,845.5211792661822 M570.8390055106875,845.5211792661822 L571.8511493786926,844.641271228623 M571.8511493786926,844.641271228623 L572.9843764412246,843.8128424683566 M572.9843764412246,843.8128424683566 L574.2308686093761,843.0413634679562 M574.2308686093761,843.0413634679562 L575.5820879737654,842.3319113921622 M575.5820879737654,842.3319113921622 L577.0288355567322,841.6891399229598 M577.0288355567322,841.6891399229598 L578.5613143399171,841.1172526613715 M578.5613143399171,841.1172526613715 L580.1691942715881,840.6199812463286 M580.1691942715881,840.6199812463286 L581.8416752624598,840.2005609018681 M581.8416752624598,840.2005609018681 L583.5675624342446,839.8617164507718 M583.5675624342446,839.8617164507718 L585.3353281581326,839.6056449320628 M585.3353281581326,839.6056449320628 L587.1331932361986,839.4340047024374 M587.1331932361986,839.4340047024374 L588.9491910336698,839.3479057291091 M588.9491910336698,839.3479057291091 L590.7712458595018,839.3479057291091 M590.7712458595018,839.3479057291091 L592.587243656973,839.4340047024374 M592.587243656973,839.4340047024374 L594.385108735039,839.6056449320628 M594.385108735039,839.6056449320628 L596.152874458927,839.8617164507718 M596.152874458927,839.8617164507718 L597.8787616307118,840.2005609018681 M597.8787616307118,840.2005609018681 L599.5512426215835,840.6199812463286 M599.5512426215835,840.6199812463286 L601.1591225532544,841.1172526613715 M601.1591225532544,841.1172526613715 L602.6916013364394,841.6891399229598 M602.6916013364394,841.6891399229598 L604.1383489194061,842.3319113921622 M604.1383489194061,842.3319113921622 L605.4895682837954,843.0413634679562 M572.0367578044044,504.4290987023686 L570.6377515291406,503.7610199792792 M570.6377515291406,503.7610199792792 L569.3726372729467,503.0453595515805 M569.3726372729467,503.0453595515805 L568.2499426655429,502.28718788378734 M568.2499426655429,502.28718788378734 L567.2771577803646,501.49185444464564 M567.2771577803646,501.49185444464564 L566.4606819150556,500.66494837995737 M566.4606819150556,500.66494837995737 L565.805794547324,499.81225287240903 M565.805794547324,499.81225287240903 L565.3166226449783,498.9397060947765 M565.3166226449783,498.9397060947765 L564.9961242626912,498.0533529411835 M564.9961242626912,498.0533529411835 L564.8460773496749,497.15930567566625 M564.8460773496749,497.15930567566625 L564.8670831279521,496.2636982334684 M564.8670831279521,496.2636982334684 L565.058568689712,495.37264520102883 M565.058568689712,495.37264520102883 L565.4188026562849,494.4921988633456 M565.4188026562849,494.4921988633456 L565.9449233091331,493.62831040295555 M565.9449233091331,493.62831040295555 L566.6329648776237,492.7867886142095 M566.6329648776237,492.7867886142095 L567.4778960181129,491.9732669379781 M567.4778960181129,491.9732669379781 L568.4736611061938,491.19316355698015 M568.4736611061938,491.19316355698015 L569.6132338772918,490.45165223415904 M569.6132338772918,490.45165223415904 L570.8886637902527,489.75362805364904 M570.8886637902527,489.75362805364904 L572.2911416671224,489.1036804466006 M572.2911416671224,489.1036804466006 L573.8110586361017,488.5060664112615 M573.8110586361017,488.5060664112615 L575.4380722773938,487.9646857776519 M575.4380722773938,487.9646857776519 L577.1611773112579,487.483059471936 M577.1611773112579,487.483059471936 L578.9687782552655,487.06431173087265 M578.9687782552655,487.06431173087265 L580.8487595875049,486.71115011162027 M580.8487595875049,486.71115011162027 L582.788569452062,486.42585426103585 M582.788569452062,486.42585426103585 L584.7752883297222,486.210261756595 M584.7752883297222,486.210261756595 L586.7957190524265,486.0657593267805 M586.7957190524265,486.0657593267805 L588.8364575259943,485.99327498440516 M588.8364575259943,485.99327498440516 L590.8839793671772,485.99327498440516 M590.8839793671772,485.99327498440516 L592.924717840745,486.0657593267805 M592.924717840745,486.0657593267805 L594.9451485634493,486.210261756595 M594.9451485634493,486.210261756595 L596.9318674411095,486.42585426103585 M596.9318674411095,486.42585426103585 L598.8716773056667,486.71115011162027 M598.8716773056667,486.71115011162027 L600.7516586379058,487.06431173087265 M600.7516586379058,487.06431173087265 L602.5592595819137,487.483059471936 M602.5592595819137,487.483059471936 L604.2823646157777,487.9646857776519 M604.2823646157777,487.9646857776519 L605.9093782570696,488.5060664112615 M605.9093782570696,488.5060664112615 L607.4292952260491,489.1036804466006" stroke="black"  stroke-width="4"  fill="red"/>
<path d="M541.4916061119054,427.595376257031 L365.5749291553593,497.45837830732546 M542.8163515452757,517.0819057670222 L372.13565530469447,590.9888152070014 M541.4916061119054,427.595376257031 L543.5463941983869,428.5276177411706 M543.5463941983869,428.5276177411706 L545.599337106619,429.6259959375303 M545.599337106619,429.6259959375303 L547.6425873001366,430.88672811459764 M547.6425873001366,430.88672811459764 L549.6683016013662,432.305346112467 M549.6683016013662,432.305346112467 L551.6686744882893,433.87670450607465 M551.6686744882893,433.87670450607465 L553.6359743905199,435.59499128051175 M553.6359743905199,435.59499128051175 L555.5625796130389,437.4539480775988 M555.5625796130389,437.4539480775988 L557.4410076119727,439.4464640583459 M557.4410076119727,439.4464640583459 L559.2639565944219,441.5651137980072 M559.2639565944219,441.5651137980072 L561.0243316017741,443.8017526392117 M561.0243316017741,443.8017526392117 L562.7152849852131,446.147952783274 M562.7152849852131,446.147952783274 L564.3302374022605,448.5945473415645 M564.3302374022605,448.5945473415645 L565.8629222823932,451.1322268528699 M565.8629222823932,451.1322268528699 L567.307400865791,453.7511875618096 M567.307400865791,453.7511875618096 L568.6580951007236,456.4412050607502 M568.6580951007236,456.4412050607502 L569.9098145349816,459.19186213756666 M569.9098145349816,459.19186213756666 L571.0577785780577,461.9926191188361 M571.0577785780577,461.9926191188361 L572.0976281919104,464.8324659316939 M572.0976281919104,464.8324659316939 L573.0254618408803,467.7005184505107 M573.0254618408803,467.7005184505107 L573.8378329058053,470.58566550190454 M573.8378329058053,470.58566550190454 L574.5317786008392,473.4767480301971 M574.5317786008392,473.4767480301971 L575.1048179209586,476.3626727451667 M575.1048179209586,476.3626727451667 L575.5549698530124,479.2323792738354 M575.5549698530124,479.2323792738354 L575.8807467703701,482.07495115888446 M575.8807467703701,482.07495115888446 L576.0811751001373,484.8794810049768 M576.0811751001373,484.8794810049768 L576.155778285093,487.6354836633071 M576.155778285093,487.6354836633071 L576.1045824840221,490.3325480977883 M576.1045824840221,490.3325480977883 L575.9281116826724,492.9605488118099 M575.9281116826724,492.9605488118099 L575.6273821072411,495.50985414391005 M575.6273821072411,495.50985414391005 L575.2038814263478,497.9709658675263 M575.2038814263478,497.9709658675263 L574.6595776560571,500.33493559809074 M574.6595776560571,500.33493559809074 L573.9968862517824,502.593200624132 M573.9968862517824,502.593200624132 L573.218667380449,504.7376862409729 M573.218667380449,504.7376862409729 L572.3281980285312,506.76074361312027 M572.3281980285312,506.76074361312027 L571.3291667543876,508.6552481434461 M571.3291667543876,508.6552481434461 L570.2256399263997,510.41473340986545 M570.2256399263997,510.41473340986545 L569.0220543021431,512.0330324834174 M569.0220543021431,512.0330324834174 L567.7231839921728,513.5048120657315 M567.7231839921728,513.5048120657315 L566.3341218613934,514.8252065366263 M566.3341218613934,514.8252065366263 L564.8602565057579,515.9898521848332 M564.8602565057579,515.9898521848332 L563.3072490142081,516.9950943580302 M563.3072490142081,516.9950943580302 L561.6810022346405,517.8378651947081 M561.6810022346405,517.8378651947081 L559.9876460770937,518.5156931488978 M559.9876460770937,518.5156931488978 L558.2335036164068,519.0267281102857 M558.2335036164068,519.0267281102857 L556.4250715395067,519.3696732438323 M556.4250715395067,519.3696732438323 L554.5689922364484,519.5438616471911 M554.5689922364484,519.5438616471911 L552.6720322335527,519.549260967202 M552.6720322335527,519.549260967202 L550.7410544568684,519.3863273570141 M550.7410544568684,519.3863273570141 L548.7829972321704,519.056208228403 M548.7829972321704,519.056208228403 L546.8048492710612,518.5605240023605 M546.8048492710612,518.5605240023605 L544.8136271001264,517.9015212279445 M544.8136271001264,517.9015212279445 L542.8163515452757,517.0819057670222 M365.5749291553593,497.45837830732546 L367.6185066184367,498.5176940409889 M367.6185066184367,498.5176940409889 L369.67034439924873,499.7509464877332 M369.67034439924873,499.7509464877332 L371.72260087524285,501.153870419958 M371.72260087524285,501.153870419958 L373.7673948147136,502.72147731154513 M373.7673948147136,502.72147731154513 L375.7968385705558,504.4480650380025 M375.7968385705558,504.4480650380025 L377.8030743783576,506.3272304466661 M377.8030743783576,506.3272304466661 L379.77832266959246,508.35210139038213 M379.77832266959246,508.35210139038213 L381.71488710097015,510.514912971899 M381.71488710097015,510.514912971899 L383.6052271148918,512.8075725267751 M383.6052271148918,512.8075725267751 L385.4419600177393,515.2212375362828 M385.4419600177393,515.2212375362828 L387.217926436033,517.7467742122406 M387.217926436033,517.7467742122406 L388.926184489797,520.3742817448604 M388.926184489797,520.3742817448604 L390.5600884720034,523.0937191225005 M390.5600884720034,523.0937191225005 L392.11328332603614,525.8945383936351 M392.11328332603614,525.8945383936351 L393.57974136741717,528.7657639422406 M393.57974136741717,528.7657639422406 L394.95380215025955,531.6962329030362 M394.95380215025955,531.6962329030362 L396.23019854386996,534.6746705611837 M396.23019854386996,534.6746705611837 L397.4040480472595,537.6893277523595 M397.4040480472595,537.6893277523595 L398.4709227771873,540.7286072054377 M398.4709227771873,540.7286072054377 L399.4268265035791,543.7806950476904 M399.4268265035791,543.7806950476904 L400.2682332653975,546.8337503620269 M400.2682332653975,546.8337503620269 L400.9920920474641,549.8760248041481 M400.9920920474641,549.8760248041481 L401.5958424626898,552.8958298076279 M401.5958424626898,552.8958298076279 L402.07741470311134,555.8816530943876 M402.07741470311134,555.8816530943876 L402.4352415038139,558.8220192315106 M402.4352415038139,558.8220192315106 L402.668265461216,561.7059214113085 M402.668265461216,561.7059214113085 L402.77592391386213,564.5224582081478 M402.77592391386213,564.5224582081478 L402.7581561427978,567.2610547648782 M402.7581561427978,567.2610547648782 L402.6154096545407,569.9116804359642 M402.6154096545407,569.9116804359642 L402.3485985263456,572.4644714226285 M402.3485985263456,572.4644714226285 L401.9591357887597,574.9101662927931 M401.9591357887597,574.9101662927931 L401.4488914209287,577.2399329142447 M401.4488914209287,577.2399329142447 L400.8201951103504,579.4454750416843 M400.8201951103504,579.4454750416843 L400.0758050387858,581.5189659097938 M400.0758050387858,581.5189659097938 L399.21890796510115,583.4531503561773 M399.21890796510115,583.4531503561773 L398.2530937863736,585.2414826750033 M398.2530937863736,585.2414826750033 L397.1823268809002,586.8777512743653 M397.1823268809002,586.8777512743653 L396.01094478232665,588.3566342112825 M396.01094478232665,588.3566342112825 L394.74361834228273,589.6733156426371 M394.74361834228273,589.6733156426371 L393.38533099729807,590.8235198643032 M393.38533099729807,590.8235198643032 L391.9413679911802,591.8037256939848 M391.9413679911802,591.8037256939848 L390.4172791568866,592.6110367104502 M390.4172791568866,592.6110367104502 L388.8188649706216,593.2431897481633 M388.8188649706216,593.2431897481633 L387.152145004336,593.6985788041193 M387.152145004336,593.6985788041193 L385.42333485899064,593.9761822892233 M385.42333485899064,593.9761822892233 L383.6388235582779,594.075640992483 M383.6388235582779,594.075640992483 L381.80515293055817,593.9972611940767 M381.80515293055817,593.9972611940767 L379.9289822459411,593.7418604482993 M379.9289822459411,593.7418604482993 L378.01707989226185,593.3109774504686 M378.01707989226185,593.3109774504686 L376.07628652641677,592.7066427615537 M376.07628652641677,592.7066427615537 L374.1135024459563,591.9315369558493 M374.1135024459563,591.9315369558493 L372.13565530469447,590.9888152070014 M542.8163515452757,517.0819057670222 L540.8200276122213,516.1049978179035 M540.8200276122213,516.1049978179035 L538.8316207452335,514.9745421761235 M538.8316207452335,514.9745421761235 L536.8580388306984,513.6948655986457 M536.8580388306984,513.6948655986457 L534.9061088311685,512.2706893410282 M534.9061088311685,512.2706893410282 L532.9825607395874,510.7072646750229 M532.9825607395874,510.7072646750229 L531.0940041880854,509.0101877436351 M531.0940041880854,509.0101877436351 L529.2469146919339,507.18558709134913 M529.2469146919339,507.18558709134913 L527.447612543471,505.2398929537235 M527.447612543471,505.2398929537235 L525.7022462594166,503.1799523580256 M525.7022462594166,503.1799523580256 L524.016778603458,501.0129996911106 M524.016778603458,501.0129996911106 L522.3969650577153,498.7465516171926 M522.3969650577153,498.7465516171926 L520.8483454326308,496.38845574516847 M520.8483454326308,496.38845574516847 L519.3762192718532,493.9468352156234 M519.3762192718532,493.9468352156234 L517.9856409748943,491.43006749357096 M517.9856409748943,491.43006749357096 L516.6814033506819,488.8468815601223 M516.6814033506819,488.8468815601223 L515.4680191818543,486.2061363612713 M515.4680191818543,486.2061363612713 L514.3497080642422,483.5167734515245 M514.3497080642422,483.5167734515245 L513.3303989173262,480.78817063391455 M513.3303989173262,480.78817063391455 L512.4136924004151,478.02959381026255 M512.4136924004151,478.02959381026255 L511.60287339805143,475.25055593274067 M511.60287339805143,475.25055593274067 L510.90088338256015,472.4606671160904 M510.90088338256015,472.4606671160904 L510.31032063906423,469.669545760326 M510.31032063906423,469.669545760326 L509.83342250670285,466.8868698028082 M509.83342250670285,466.8868698028082 L509.4720661885048,464.1222877462649 M509.4720661885048,464.1222877462649 L509.2277472074805,461.3855675366716 M509.2277472074805,461.3855675366716 L509.1015802660033,458.6862089457586 M509.1015802660033,458.6862089457586 L509.09429263337586,456.03379651062335 M509.09429263337586,456.03379651062335 L509.2062146069184,453.43780489278055 M509.2062146069184,453.43780489278055 L509.4372692450184,450.90740148629925 M509.4372692450184,450.90740148629925 L509.78698691994646,448.45180842746186 M509.78698691994646,448.45180842746186 L510.25447495676747,446.0798951119633 M510.25447495676747,446.0798951119633 L510.8384377718978,443.8003407808187 M510.8384377718978,443.8003407808187 L511.537162524059,441.6215311327203 M511.537162524059,441.6215311327203 L512.3485314805334,439.5516158941724 M512.3485314805334,439.5516158941724 L513.2700095336853,437.5984036920881 M513.2700095336853,437.5984036920881 L514.2986585783967,435.76921556281997 M514.2986585783967,435.76921556281997 L515.4311358681939,434.07123699908624 M515.4311358681939,434.07123699908624 L516.663701454834,432.5109608284281 M516.663701454834,432.5109608284281 L517.9922287158433,431.0945419791039 M517.9922287158433,431.0945419791039 L519.4122125715796,429.82774569983076 M519.4122125715796,429.82774569983076 L520.9187773155743,428.7157407055216 M520.9187773155743,428.7157407055216 L522.5066946470376,427.7630474125482 M522.5066946470376,427.7630474125482 L524.1703966787983,426.9738935774597 M524.1703966787983,426.9738935774597 L525.9039904449787,426.3516479875198 M525.9039904449787,426.3516479875198 L527.7012804878312,425.89928147413985 M527.7012804878312,425.89928147413985 L529.5557852496202,425.61895260015893 M529.5557852496202,425.61895260015893 L531.4607646811451,425.5124203291172 M531.4607646811451,425.5124203291172 L533.4092366028253,425.5805246527673 M533.4092366028253,425.5805246527673 L535.3940097185177,425.82360188860605 M535.3940097185177,425.82360188860605 L537.4077061455193,426.2412770287433 M537.4077061455193,426.2412770287433 L539.442791919584,426.83246573154213 M539.442791919584,426.83246573154213 L541.4916061119054,427.595376257031 M372.13565530469447,590.9888152070014 L370.1496900832923,589.8822676556566 M370.1496900832923,589.8822676556566 L368.1625353211653,588.6161202552506 M368.1625353211653,588.6161202552506 L366.1810953727801,587.1951978230093 M366.1810953727801,587.1951978230093 L364.2122171968838,585.6247274531931 M364.2122171968838,585.6247274531931 L362.26268328298215,583.9104790392456 M362.26268328298215,583.9104790392456 L360.3391785881022,582.0585712768295 M360.3391785881022,582.0585712768295 L358.44828879947806,580.0756666680786 M358.44828879947806,580.0756666680786 L356.5964668024634,577.968730288156 M356.5964668024634,577.968730288156 L354.7900239833692,575.7451493178046 M354.7900239833692,575.7451493178046 L353.0351154804389,573.4127020954303 M353.0351154804389,573.4127020954303 L351.337713651051,570.9794480383189 M351.337713651051,570.9794480383189 L349.70360331037637,568.4537784808974 M349.70360331037637,568.4537784808974 L348.138355149491,565.8443583597451 M348.138355149491,565.8443583597451 L346.6473201804241,563.1601044607597 M346.6473201804241,563.1601044607597 L345.23562002693984,560.4102866731032 M345.23562002693984,560.4102866731032 L343.9081163292876,557.6042968326032 M343.9081163292876,557.6042968326032 L342.6693955289444,554.7515994154611 M342.6693955289444,554.7515994154611 L341.5237925953433,551.8621011605212 M341.5237925953433,551.8621011605212 L340.4753223880856,548.9455784847682 M340.4753223880856,548.9455784847682 L339.5277132286168,546.0120530876202 M339.5277132286168,546.0120530876202 L338.68437144961996,543.0716351532773 M338.68437144961996,543.0716351532773 L337.94837638624983,540.1344313164755 M337.94837638624983,540.1344313164755 L337.322466315857,537.2105980315844 M337.322466315857,537.2105980315844 L336.80903389824834,534.3102493953704 M336.80903389824834,534.3102493953704 L336.4101141824612,531.443612208001 M336.4101141824612,531.443612208001 L336.1273621696894,528.620622003339 M336.1273621696894,528.620622003339 L335.9620672857243,525.8512916096137 M335.9620672857243,525.8512916096137 L335.9151323190358,523.1455080430541 M335.9151323190358,523.1455080430541 L335.9870514332247,520.512826310551 M335.9870514332247,520.512826310551 L336.1779454641836,517.9628482772815 M336.1779454641836,517.9628482772815 L336.48750792023304,515.5047961273012 M336.48750792023304,515.5047961273012 L336.91503368765353,513.1476830729675 M336.91503368765353,513.1476830729675 L337.4593985547169,510.90020480704453 M337.4593985547169,510.90020480704453 L338.11907409311584,508.77080009768065 M338.11907409311584,508.77080009768065 L338.89210882629703,506.7675403093709 M338.89210882629703,506.7675403093709 L339.7761328464994,504.8979766486208 M339.7761328464994,504.8979766486208 L340.7683766906922,503.1695076866603 M340.7683766906922,503.1695076866603 L341.8656447673255,501.5887970008197 M341.8656447673255,501.5887970008197 L343.0643461532285,500.162143871467 M343.0643461532285,500.162143871467 L344.3604989230871,498.8954289819941 M344.3604989230871,498.8954289819941 L345.74972489813194,497.7938978438826 M345.74972489813194,497.7938978438826 L347.22726353518806,496.86210665368617 M347.22726353518806,496.86210665368617 L348.78800523553423,496.1042940030715 M348.78800523553423,496.1042940030715 L350.42647128819704,495.52378843628077 M350.42647128819704,495.52378843628077 L352.1368627960761,495.1234907044848 M352.1368627960761,495.1234907044848 L353.9130516208153,494.9054402340128 M353.9130516208153,494.9054402340128 L355.74863137886433,494.87124710757087 M355.74863137886433,494.87124710757087 L357.63690228211465,495.02154853880995 M357.63690228211465,495.02154853880995 L359.57092764569023,495.3564438929179 M359.57092764569023,495.3564438929179 L361.5435433538487,495.8752775806946 M361.5435433538487,495.8752775806946 L363.5473875661953,496.57664164641506 M363.5473875661953,496.57664164641506 L365.5749291553593,497.45837830732546" stroke="black"  stroke-width="4"  fill="red"/>
<path d="M345.24216266808514,473.9322331506344 L304.60793413345044,-61.11129031479663 M255.62029433650457,508.4779913013399 L197.94299940810404,-41.37813520619886 M345.24216266808514,473.9322331506344 L347.27305200752903,474.95305268309676 M347.27305200752903,474.95305268309676 L349.1483306967736,476.0312364212252 M349.1483306967736,476.0312364212252 L350.8612058110373,477.1633351559701 M350.8612058110373,477.1633351559701 L352.4053757197539,478.34569920593117 M352.4053757197539,478.34569920593117 L353.77501321809774,479.5745031226863 M353.77501321809774,479.5745031226863 L354.9648907080093,480.84571524082 M354.9648907080093,480.84571524082 L355.9702514156635,482.15517014555525 M355.9702514156635,482.15517014555525 L356.78700156781946,483.4985080377322 M356.78700156781946,483.4985080377322 L357.41158743949615,484.8712497515146 M357.41158743949615,484.8712497515146 L357.8410931212264,486.26877254437136 M357.8410931212264,486.26877254437136 L358.0732595798505,487.6863300917671 M358.0732595798505,487.6863300917671 L358.10649106586516,489.11906677719077 M358.10649106586516,489.11906677719077 L357.93984200432635,490.5620437628227 M357.93984200432635,490.5620437628227 L357.5731269667232,492.010220767953 M357.5731269667232,492.010220767953 L357.00676554610266,493.45853981205437 M357.00676554610266,493.45853981205437 L356.2419756974035,494.90186510875446 M356.2419756974035,494.90186510875446 L355.28063595344804,496.3350561589843 M355.28063595344804,496.3350561589843 L354.12542956278224,497.7529476284668 M354.12542956278224,497.7529476284668 L352.77965893225064,499.15042333889653 M352.77965893225064,499.15042333889653 L351.2474483369239,500.52236310348974 M351.2474483369239,500.52236310348974 L349.5336076611859,501.8637218515637 M349.5336076611859,501.8637218515637 L347.64366697756265,503.16952407254985 M347.64366697756265,503.16952407254985 L345.5838283948181,504.43490415379495 M345.5838283948181,504.43490415379495 L343.3609981148737,505.65510183020933 M343.3609981148737,505.65510183020933 L340.98279121414373,506.82548795689803 M340.98279121414373,506.82548795689803 L338.4573757642355,507.94162102006584 M338.4573757642355,507.94162102006584 L335.7936438839855,508.9992063117319 M335.7936438839855,508.9992063117319 L333.0009814233578,509.9941832712219 M333.0009814233578,509.9941832712219 L330.08941348144174,510.9226739383489 M330.08941348144174,510.9226739383489 L327.06939420774813,511.7810829200747 M327.06939420774813,511.7810829200747 L323.95192677140153,512.5660346972239 M323.95192677140153,512.5660346972239 L320.7484249787102,513.2744455820156 M320.7484249787102,513.2744455820156 L317.47065810016704,513.9035286552819 M317.47065810016704,513.9035286552819 L314.1307658829485,514.4507896804798 M314.1307658829485,514.4507896804798 L310.74115871928285,514.9140543012576 M310.74115871928285,514.9140543012576 L307.3145300667642,515.2914629283312 M307.3145300667642,515.2914629283312 L303.86364970596435,515.5815336214753 M303.86364970596435,515.5815336214753 L300.4015006922229,515.7830858334095 M300.4015006922229,515.7830858334095 L296.94107313550455,515.8953251648243 M296.94107313550455,515.8953251648243 L293.4954136146034,515.9177888230142 M293.4954136146034,515.9177888230142 L290.0774203244667,515.8504079988958 M290.0774203244667,515.8504079988958 L286.69998967237404,515.6934332357231 M286.69998967237404,515.6934332357231 L283.3757804493278,515.4475018952029 M283.3757804493278,515.4475018952029 L280.11724935179126,515.1135949929819 M280.11724935179126,515.1135949929819 L276.9365661619187,514.6930441509332 M276.9365661619187,514.6930441509332 L273.84555847463815,514.1875297934829 M273.84555847463815,514.1875297934829 L270.85564425810156,513.5990718728888 M270.85564425810156,513.5990718728888 L267.9778808020687,512.929988205207 M267.9778808020687,512.929988205207 L265.2227479117081,512.1829417270512 M265.2227479117081,512.1829417270512 L262.6002980997955,511.3608574962632 M262.6002980997955,511.3608574962632 L260.11994653398074,510.4669706270229 M260.11994653398074,510.4669706270229 L257.7905430209896,509.50476858129156 M257.7905430209896,509.50476858129156 L255.62029433650457,508.4779913013399 M304.60793413345044,-61.11129031479663 L306.93019406015173,-60.53129302108255 M306.93019406015173,-60.53129302108255 L309.06912506155004,-59.918498404443085 M309.06912506155004,-59.918498404443085 L311.0169191286012,-59.274834196887014 M311.0169191286012,-59.274834196887014 L312.766330576031,-58.60234331977017 M312.766330576031,-58.60234331977017 L314.3106559961534,-57.90317037330749 M314.3106559961534,-57.90317037330749 L315.64388270457766,-57.17957949654897 M315.64388270457766,-57.17957949654897 L316.7605365462861,-56.433913648112025 M316.7605365462861,-56.433913648112025 L317.65591043961814,-55.66862961826314 M317.65591043961814,-55.66862961826314 L318.32591937846394,-54.88625578429651 M318.32591937846394,-54.88625578429651 L318.767217680461,-54.089406325722734 M318.767217680461,-54.089406325722734 L318.9772226593087,-53.280770228273354 M318.9772226593087,-53.280770228273354 L318.9541239514922,-52.46310348379245 M318.9541239514922,-52.46310348379245 L318.6968696622158,-51.63921450538999 M318.6968696622158,-51.63921450538999 L318.2052984530178,-50.81197476957698 M318.2052984530178,-50.81197476957698 L317.47995736849884,-49.98427115951597 M317.47995736849884,-49.98427115951597 L316.5223333899338,-49.15904039610837 M316.5223333899338,-49.15904039610837 L315.33469201738353,-48.33922730683082 M315.33469201738353,-48.33922730683082 L313.9202496481641,-47.527796288453715 M313.9202496481641,-47.527796288453715 L312.2829559698857,-46.72768885615517 M312.2829559698857,-46.72768885615517 L310.42773622286944,-45.941853880116355 M310.42773622286944,-45.941853880116355 L308.36033074996857,-45.17320203185045 M308.36033074996857,-45.17320203185045 L306.0873380181482,-44.42460862364533 M306.0873380181482,-44.42460862364533 L303.61615846298304,-43.69889008863322 M303.61615846298304,-43.69889008863322 L300.95503402845355,-42.998806126806244 M300.95503402845355,-42.998806126806244 L298.11305412369086,-42.32704441757801 M298.11305412369086,-42.32704441757801 L295.099971422875,-41.68618761921687 M295.099971422875,-41.68618761921687 L291.92640503135453,-41.07873619756219 M291.92640503135453,-41.07873619756219 L288.60356674592657,-40.50705763949372 M288.60356674592657,-40.50705763949372 L285.1434340928527,-39.97341540313005 M285.1434340928527,-39.97341540313005 L281.5584985646443,-39.479910809338435 M281.5584985646443,-39.479910809338435 L277.86190850601497,-39.02851840306016 M277.86190850601497,-39.02851840306016 L274.06730203446597,-38.62104393609059 M274.06730203446597,-38.62104393609059 L270.1887403620227,-38.259120885894845 M270.1887403620227,-38.259120885894845 L266.24072361751024,-37.94421220928541 M266.24072361751024,-37.94421220928541 L262.2380699871728,-37.677594144423324 M262.2380699871728,-37.677594144423324 L258.1959279437729,-37.46035865647207 M258.1959279437729,-37.46035865647207 L254.12952736281642,-37.29337680799665 M254.12952736281642,-37.29337680799665 L250.05434121602954,-37.17734229007999 M250.05434121602954,-37.17734229007999 L245.98583573434237,-37.112722350384956 M245.98583573434237,-37.112722350384956 L241.939527999467,-37.099788991265996 M241.939527999467,-37.099788991265996 L237.9307386281946,-37.138582945230155 M237.9307386281946,-37.138582945230155 L233.97476463656983,-37.228956620868985 M233.97476463656983,-37.228956620868985 L230.08659551436736,-37.370535327225525 M230.08659551436736,-37.370535327225525 L226.28095416987225,-37.56274228172833 M226.28095416987225,-37.56274228172833 L222.57219398159134,-37.80479484931868 M222.57219398159134,-37.80479484931868 L218.97423125182087,-38.09570590566648 M218.97423125182087,-38.09570590566648 L215.50046410146143,-38.43428957769606 M215.50046410146143,-38.43428957769606 L212.1638302393689,-38.819185683284445 M212.1638302393689,-38.819185683284445 L208.97654788976803,-39.24883307081268 M208.97654788976803,-39.24883307081268 L205.9502956114955,-39.72151794183708 M205.9502956114955,-39.72151794183708 L203.0959619015927,-40.23534689708731 M203.0959619015927,-40.23534689708731 L200.42373256555405,-40.78828076911111 M200.42373256555405,-40.78828076911111 L197.94299940810404,-41.37813520619886 M255.62029433650457,508.4779913013399 L253.61673873993954,507.3906117220216 M253.61673873993954,507.3906117220216 L251.78674693608644,506.2468063419078 M251.78674693608644,506.2468063419078 L250.13647468879887,505.05094526389206 M250.13647468879887,505.05094526389206 L248.67134298339064,503.8075730095311 M248.67134298339064,503.8075730095311 L247.39607002868527,502.5213704569177 M247.39607002868527,502.5213704569177 L246.31455533928002,501.1971751692533 M246.31455533928002,501.1971751692533 L245.43003704184716,499.8398948477435 M245.43003704184716,499.8398948477435 L244.74491013224767,498.4545605454124 M244.74491013224767,498.4545605454124 L244.26088269413634,497.0462398580304 M244.26088269413634,497.0462398580304 L243.97889864592577,495.62005430482964 M243.97889864592577,495.62005430482964 L243.89914719810088,494.1811520500046 M243.89914719810088,494.1811520500046 L244.02108566664225,492.73468794457926 M244.02108566664225,492.73468794457926 L244.34348375365127,491.28579320955583 M244.34348375365127,491.28579320955583 L244.86434019307165,489.8395910794335 M244.86434019307165,489.8395910794335 L245.58107574988836,488.4011118571109 M245.58107574988836,488.4011118571109 L246.49036186195877,486.9753533861777 M246.49036186195877,486.9753533861777 L247.58829343219978,485.5672100300725 M247.58829343219978,485.5672100300725 L248.87027002118361,484.1814957509496 M248.87027002118361,484.1814957509496 L250.33121182153553,482.8228761633032 M250.33121182153553,482.8228761633032 L251.96537692376972,481.4959262855599 M251.96537692376972,481.4959262855599 L253.76652454937926,480.2050604213784 M253.76652454937926,480.2050604213784 L255.72789854016554,478.95454584325864 M255.72789854016554,478.95454584325864 L257.8422935777424,477.7484731584668 M257.8422935777424,477.7484731584668 L260.1020360044272,476.59077062073186 M260.1020360044272,476.59077062073186 L262.49899137037477,475.4851899954344 M262.49899137037477,475.4851899954344 L265.0247265090975,474.4352643602151 M265.0247265090975,474.4352643602151 L267.670343491312,473.44435821324726 M267.670343491312,473.44435821324726 L270.42670875685224,472.5155971360022 M270.42670875685224,472.5155971360022 L273.2843053742008,471.65192796351636 M273.2843053742008,471.65192796351636 L276.2334350122629,470.85603731408656 M276.2334350122629,470.85603731408656 L279.26408869534777,470.13042150011745 M279.26408869534777,470.13042150011745 L282.36607087539176,469.4773307862513 M282.36607087539176,469.4773307862513 L285.5290362391223,468.8987755330289 M285.5290362391223,468.8987755330289 L288.7424566783032,468.396539747693 M288.7424566783032,468.396539747693 L291.9956971564813,467.97216498283944 M291.9956971564813,467.97216498283944 L295.27798093625404,467.62696297372986 M295.27798093625404,467.62696297372986 L298.57856347421574,467.36196501717353 M298.57856347421574,467.36196501717353 L301.8865743306786,467.1779974070307 M301.8865743306786,467.1779974070307 L305.19118794962174,467.0756084069802 M305.19118794962174,467.0756084069802 L308.4815483292684,467.0551211734429 M308.4815483292684,467.0551211734429 L311.7469360907809,467.1165785895636 M311.7469360907809,467.1165785895636 L314.97660124025407,467.25981168260256 M314.97660124025407,467.25981168260256 L318.15995986318126,467.48437704407786 M318.15995986318126,467.48437704407786 L321.28653414851703,467.7895937722077 M321.28653414851703,467.7895937722077 L324.34600784815166,468.174533361933 M324.34600784815166,468.174533361933 L327.32825514011563,468.63801625781673 M327.32825514011563,468.63801625781673 L330.22338336782036,469.1786139854098 M330.22338336782036,469.1786139854098 L333.0216683352985,469.7946799854709 M333.0216683352985,469.7946799854709 L335.71374233828806,470.48429766692635 M335.71374233828806,470.48429766692635 L338.29043997995814,471.2453474355536 M338.29043997995814,471.2453474355536 L340.74298541626223,472.0754522860859 M340.74298541626223,472.0754522860859 L343.06291818632997,472.97202028257954 M343.06291818632997,472.97202028257954 L345.24216266808514,473.9322331506344 M197.94299940810404,-41.37813520619886 L195.66233177545647,-42.00259254436355 M195.66233177545647,-42.00259254436355 L193.58948014762578,-42.659219376748524 M193.58948014762578,-42.659219376748524 L191.73132221668644,-43.345472920380985 M191.73132221668644,-43.345472920380985 L190.0938422260586,-44.058712657175306 M190.0938422260586,-44.058712657175306 L188.6821726002472,-44.796222758806834 M188.6821726002472,-44.796222758806834 L187.50045884032718,-45.55520097769079 M187.50045884032718,-45.55520097769079 L186.55205163067896,-46.33280875893536 M186.55205163067896,-46.33280875893536 L185.83929303767744,-47.12614117260159 M185.83929303767744,-47.12614117260159 L185.36370773007323,-47.93227702093702 M185.36370773007323,-47.93227702093702 L185.12591418964263,-48.748269171878405 M185.12591418964263,-48.748269171878405 L185.12564045650353,-49.57116040821859 M185.12564045650353,-49.57116040821859 L185.36175506715458,-50.39799500336812 M185.36175506715458,-50.39799500336812 L185.83232374174125,-51.22583613433369 M185.83232374174125,-51.22583613433369 L186.53451379241181,-52.05175695623552 M186.53451379241181,-52.05175695623552 L187.46482809365273,-52.87288905957905 M187.46482809365273,-52.87288905957905 L188.6189035000902,-53.686387795313294 M188.6189035000902,-53.686387795313294 L189.99171994212963,-54.48947262570982 M189.99171994212963,-54.48947262570982 L191.577462445754,-55.27941369368523 M191.577462445754,-55.27941369368523 L193.36977990835584,-56.053570245453784 M193.36977990835584,-56.053570245453784 L195.36156983397908,-56.80935734107527 M195.36156983397908,-56.80935734107527 L197.54517508587156,-57.54428540538959 M197.54517508587156,-57.54428540538959 L199.91236506070925,-58.255951972929324 M199.91236506070925,-58.255951972929324 L202.45441589190747,-58.94205807147091 M202.45441589190747,-58.94205807147091 L205.16208793461448,-59.60039956814887 M205.16208793461448,-59.60039956814887 L208.0256359767323,-60.2288746941673 M208.0256359767323,-60.2288746941673 L211.0350010639833,-60.825507494533895 M211.0350010639833,-60.825507494533895 L214.1796136533,-61.388418804657135 M214.1796136533,-61.388418804657135 L217.44866472693613,-61.91586568170055 M217.44866472693613,-61.91586568170055 L220.83092923484367,-62.40620669417274 M220.83092923484367,-62.40620669417274 L224.3150055046446,-62.857947672024125 M224.3150055046446,-62.857947672024125 L227.88915926914183,-63.2697015181468 M227.88915926914183,-63.2697015181468 L231.54147020048862,-63.64021938494159 M231.54147020048862,-63.64021938494159 L235.2598728074596,-63.96838674269361 M235.2598728074596,-63.96838674269361 L239.03211539653736,-64.25321529115877 M239.03211539653736,-64.25321529115877 L242.8458474644001,-64.49385173204325 M242.8458474644001,-64.49385173204325 L246.6885764166231,-64.68957028398086 M246.6885764166231,-64.68957028398086 L250.5478707353597,-64.83980110875234 M250.5478707353597,-64.83980110875234 L254.41116939231668,-64.94408731763622 M254.41116939231668,-64.94408731763622 L258.2659824347298,-65.00212619918727 M258.2659824347298,-65.00212619918727 L262.0997980011443,-65.01373909590563 M262.0997980011443,-65.01373909590563 L265.90027745339444,-64.97890260735119 M265.90027745339444,-64.97890260735119 L269.65505461652634,-64.89770979499565 M269.65505461652634,-64.89770979499565 L273.3519658228917,-64.77040569557266 M273.3519658228917,-64.77040569557266 L276.97897586789367,-64.59736647527825 M276.97897586789367,-64.59736647527825 L280.52424096566693,-64.37910530802469 M280.52424096566693,-64.37910530802469 L283.97614048166344,-64.11627453014012 M283.97614048166344,-64.11627453014012 L287.32332469481935,-63.80966468375129 M287.32332469481935,-63.80966468375129 L290.5546361635171,-63.46018732466473 M290.5546361635171,-63.46018732466473 L293.6593297573153,-63.068904828981545 M293.6593297573153,-63.068904828981545 L296.6268884144725,-62.6369927519745 M296.6268884144725,-62.6369927519745 L299.4472427979896,-62.16577111729748 M299.4472427979896,-62.16577111729748 L302.1106819490879,-61.65668076662075 M302.1106819490879,-61.65668076662075 L304.60793413345044,-61.11129031479663" stroke="black"  stroke-width="4"  fill="red"/></svg>