<svg viewBox="0 0 800 800" xmlns="http://www.w3.org/2000/svg"><path d="M603.7810430524338,849.2878891564972 L605.6909428621308,500.7926970127829 M572.8051057978189,867.17185486885 L570.8426356010317,515.8824566962817 M603.7810430524338,849.2878891564972 L605.0083679417687,850.0475051436513 M605.0083679417687,850.0475051436513 L606.1241694001732,850.8631951756421 M606.1241694001732,850.8631951756421 L607.1207495572971,851.7295728893695 M607.1207495572971,851.7295728893695 L607.9911706046126,852.6408967270136 M607.9911706046126,852.6408967270136 L608.7293117474788,853.5911022028973 M608.7293117474788,853.5911022028973 L609.3299090500119,854.5738426238399 M609.3299090500119,854.5738426238399 L609.7886014671667,855.5825237793772 M609.7886014671667,855.5825237793772 L610.1019658668043,856.6103510840906 M610.1019658668043,856.6103510840906 L610.267549455867,857.6503685058857 M610.267549455867,857.6503685058857 L610.2838913993221,858.6955070852734 M610.2838913993221,858.6955070852734 L610.1505459756307,859.738630418897 M610.1505459756307,859.738630418897 L609.8680947609605,860.7725848462667 M609.8680947609605,860.7725848462667 L609.4381473832254,861.7902472357702 M609.4381473832254,861.7902472357702 L608.8633429855684,862.7845780829028 M608.8633429855684,862.7845780829028 L608.147339030607,863.7486670647384 M608.147339030607,863.7486670647384 L607.2947956421716,864.6757888604288 M607.2947956421716,864.6757888604288 L606.3113458717482,865.5594480974572 M606.3113458717482,865.5594480974572 L605.2035693258692,866.3934318795662 M605.2035693258692,866.3934318795662 L603.9789448737828,867.17185486885 M603.9789448737828,867.17185486885 L602.6458053614415,867.8892049695557 M602.6458053614415,867.8892049695557 L601.2132818060236,868.5403870383442 M601.2132818060236,868.5403870383442 L599.6912393250445,869.1207630711556 M599.6912393250445,869.1207630711556 L598.0902071321078,869.6261873061629 M598.0902071321078,869.6261873061629 L596.4213068711964,870.0530432790604 M596.4213068711964,870.0530432790604 L594.6961650654886,870.3982692368716 M594.6961650654886,870.3982692368716 L592.9268357369082,870.6593856727098 M592.9268357369082,870.6593856727098 L591.1257011015587,870.8345146573647 M591.1257011015587,870.8345146573647 L589.3053871761249,870.9223961153225 M589.3053871761249,870.9223961153225 L587.4786634954767,870.9223961153225 M587.4786634954767,870.9223961153225 L585.6583495700429,870.8345146573647 M585.6583495700429,870.8345146573647 L583.8572149346934,870.6593856727097 M583.8572149346934,870.6593856727097 L582.0878856061131,870.3982692368716 M582.0878856061131,870.3982692368716 L580.3627438004052,870.0530432790604 M580.3627438004052,870.0530432790604 L578.6938435394937,869.6261873061629 M578.6938435394937,869.6261873061629 L577.092811346557,869.1207630711556 M577.092811346557,869.1207630711556 L575.570768865578,868.5403870383442 M575.570768865578,868.5403870383442 L574.1382453101601,867.8892049695557 M574.1382453101601,867.8892049695557 L572.8051057978189,867.17185486885 M605.6909428621308,500.7926970127829 L607.0718548718518,501.4326503917737 M607.0718548718518,501.4326503917737 L608.3276725310195,502.11994107196136 M608.3276725310195,502.11994107196136 L609.4497221201885,502.8500501937631 M609.4497221201885,502.8500501937631 L610.4301753534764,503.61815794463075 M610.4301753534764,503.61815794463075 L611.2621140090031,504.41917011844396 M611.2621140090031,504.41917011844396 L611.9395755795462,505.2477518477437 M611.9395755795462,505.2477518477437 L612.4576060883066,506.0983563169384 M612.4576060883066,506.0983563169384 L612.8123007462078,506.96526405336215 M612.8123007462078,506.96526405336215 L613.0008418392855,507.8426153856631 M613.0008418392855,507.8426153856631 L613.0215246122367,508.72445109467753 M613.0215246122367,508.72445109467753 L612.8737849668398,509.60475061780915 M612.8737849668398,509.60475061780915 L612.5582148801415,510.4774743411826 M612.5582148801415,510.4774743411826 L612.0765649618734,511.33660398889253 M612.0765649618734,511.33660398889253 L611.4317477807754,512.1761876190008 M611.4317477807754,512.1761876190008 L610.6278268443762,512.9903783698651 M610.6278268443762,512.9903783698651 L609.6700004479868,513.7734819866544 M609.6700004479868,513.7734819866544 L608.5645694874121,514.5199952677212 M608.5645694874121,514.5199952677212 L607.3189088614158,515.2246510029667 M607.3189088614158,515.2246510029667 L605.9414150705699,515.8824566962817 M605.9414150705699,515.8824566962817 L604.4414558094833,516.4887338505273 M604.4414558094833,516.4887338505273 L602.8293074293186,517.0391556201992 M602.8293074293186,517.0391556201992 L601.1160827948088,517.5297815003283 M601.1160827948088,517.5297815003283 L599.3136521594145,517.9570877096874 M599.3136521594145,517.9570877096874 L597.4345618856253,518.3179991949668 M597.4345618856253,518.3179991949668 L595.4919349935682,518.6099117423969 M595.4919349935682,518.6099117423969 L593.4993829219284,518.8307158120144 M593.4993829219284,518.8307158120144 L591.4708923790519,518.9788133485076 M591.4708923790519,518.9788133485076 L589.4207288132076,519.0531319059446 M589.4207288132076,519.0531319059446 L587.363321858394,519.0531319059446 M587.363321858394,519.0531319059446 L585.3131582925496,518.9788133485076 M585.3131582925496,518.9788133485076 L583.2846677496731,518.8307158120144 M583.2846677496731,518.8307158120144 L581.2921156780334,518.6099117423969 M581.2921156780334,518.6099117423969 L579.3494887859763,518.3179991949668 M579.3494887859763,518.3179991949668 L577.4703985121871,517.9570877096874 M577.4703985121871,517.9570877096874 L575.6679678767928,517.5297815003283 M575.6679678767928,517.5297815003283 L573.9547432422829,517.0391556201992 M573.9547432422829,517.0391556201992 L572.3425948621183,516.4887338505273 M572.3425948621183,516.4887338505273 L570.8426356010317,515.8824566962817 M572.8051057978189,867.17185486885 L571.5804813457323,866.3934318795662 M571.5804813457323,866.3934318795662 L570.4727047998534,865.5594480974572 M570.4727047998534,865.5594480974572 L569.48925502943,864.6757888604288 M569.48925502943,864.6757888604288 L568.6367116409945,863.7486670647384 M568.6367116409945,863.7486670647384 L567.9207076860332,862.7845780829028 M567.9207076860332,862.7845780829028 L567.3459032883762,861.7902472357702 M567.3459032883762,861.7902472357702 L566.9159559106411,860.7725848462667 M566.9159559106411,860.7725848462667 L566.6335046959709,859.738630418897 M566.6335046959709,859.738630418897 L566.5001592722796,858.6955070852734 M566.5001592722796,858.6955070852734 L566.5165012157346,857.6503685058857 M566.5165012157346,857.6503685058857 L566.6820848047973,856.6103510840906 M566.6820848047973,856.6103510840906 L566.9954492044349,855.5825237793772 M566.9954492044349,855.5825237793772 L567.4541416215895,854.5738426238399 M567.4541416215895,854.5738426238399 L568.0547389241228,853.5911022028973 M568.0547389241228,853.5911022028973 L568.7928800669889,852.6408967270136 M568.7928800669889,852.6408967270136 L569.6633011143044,851.7295728893695 M569.6633011143044,851.7295728893695 L570.6598812714285,850.8631951756421 M570.6598812714285,850.8631951756421 L571.7756827298329,850.0475051436513 M571.7756827298329,850.0475051436513 L573.0030076191678,849.2878891564972 M573.0030076191678,849.2878891564972 L574.3334493172695,848.5893463074846 M574.3334493172695,848.5893463074846 L575.7579502989269,847.9564587190482 M575.7579502989269,847.9564587190482 L577.2668641942862,847.3933653535423 M577.2668641942862,847.3933653535423 L578.8500197965618,846.9037404685807 M578.8500197965618,846.9037404685807 L580.4967830891705,846.490769540241 M580.4967830891705,846.490769540241 L582.1961313371875,846.1571354917735 M582.1961313371875,846.1571354917735 L583.9367141718618,845.9050015783871 M583.9367141718618,845.9050015783871 L585.7069335236998,845.7360006562692 M585.7069335236998,845.7360006562692 L587.4950067685712,845.6512256246951 M587.4950067685712,845.6512256246951 L589.2890439030303,845.6512256246951 M589.2890439030303,845.6512256246951 L591.0771171479017,845.7360006562692 M591.0771171479017,845.7360006562692 L592.8473364997398,845.9050015783871 M592.8473364997398,845.9050015783871 L594.5879193344141,846.1571354917735 M594.5879193344141,846.1571354917735 L596.287267582431,846.490769540241 M596.287267582431,846.490769540241 L597.9340308750399,846.9037404685807 M597.9340308750399,846.9037404685807 L599.5171864773154,847.3933653535423 M599.5171864773154,847.3933653535423 L601.0261003726747,847.9564587190482 M601.0261003726747,847.9564587190482 L602.4506013543321,848.5893463074846 M602.4506013543321,848.5893463074846 L603.7810430524338,849.2878891564972 M570.8426356010317,515.8824566962817 L569.4651418101857,515.2246510029667 M569.4651418101857,515.2246510029667 L568.2194811841895,514.5199952677212 M568.2194811841895,514.5199952677212 L567.1140502236148,513.7734819866544 M567.1140502236148,513.7734819866544 L566.1562238272254,512.9903783698651 M566.1562238272254,512.9903783698651 L565.3523028908261,512.1761876190008 M565.3523028908261,512.1761876190008 L564.7074857097282,511.33660398889253 M564.7074857097282,511.33660398889253 L564.2258357914601,510.4774743411826 M564.2258357914601,510.4774743411826 L563.9102657047617,509.60475061780915 M563.9102657047617,509.60475061780915 L563.7625260593649,508.72445109467753 M563.7625260593649,508.72445109467753 L563.7832088323161,507.8426153856631 M563.7832088323161,507.8426153856631 L563.9717499253939,506.96526405336215 M563.9717499253939,506.96526405336215 L564.3264445832948,506.0983563169384 M564.3264445832948,506.0983563169384 L564.8444750920554,505.2477518477437 M564.8444750920554,505.2477518477437 L565.5219366625985,504.41917011844396 M565.5219366625985,504.41917011844396 L566.3538753181251,503.61815794463075 M566.3538753181251,503.61815794463075 L567.334328551413,502.8500501937631 M567.334328551413,502.8500501937631 L568.456378140582,502.11994107196136 M568.456378140582,502.11994107196136 L569.7121957997498,501.4326503917737 M569.7121957997498,501.4326503917737 L571.0931078094708,500.7926970127829 M571.0931078094708,500.7926970127829 L572.5896530533266,500.20427247348124 M572.5896530533266,500.20427247348124 L574.1916481466501,499.671216636301 M574.1916481466501,499.671216636301 L575.8882570376114,499.19699628621237 M575.8882570376114,499.19699628621237 L577.6680625472246,498.7846876186641 M577.6680625472246,498.7846876186641 L579.5191354536543,498.43695655677635 M579.5191354536543,498.43695655677635 L581.4291169105604,498.1560476933332 M581.4291169105604,498.1560476933332 L583.3852860618513,497.94377034942755 M583.3852860618513,497.94377034942755 L585.3746486719901,497.8014899298533 M585.3746486719901,497.8014899298533 L587.3840067612168,497.73012017739325 M587.3840067612168,497.73012017739325 L589.4000439103847,497.73012017739325 M589.4000439103847,497.73012017739325 L591.4094019996114,497.8014899298533 M591.4094019996114,497.8014899298533 L593.3987646097503,497.94377034942755 M593.3987646097503,497.94377034942755 L595.3549337610411,498.1560476933332 M595.3549337610411,498.1560476933332 L597.2649152179473,498.43695655677635 M597.2649152179473,498.43695655677635 L599.1159881243769,498.7846876186641 M599.1159881243769,498.7846876186641 L600.8957936339901,499.19699628621237 M600.8957936339901,499.19699628621237 L602.5924025249515,499.671216636301 M602.5924025249515,499.671216636301 L604.1943976182749,500.20427247348124 M604.1943976182749,500.20427247348124 L605.6909428621308,500.7926970127829" stroke="black"  stroke-width="4"  fill="red"/>
<path d="M540.5005896907608,422.222308254122 L366.232259068403,490.1537248325303 M541.8194060421772,511.3083283878492 L372.7686052534855,583.336598268003 M540.5005896907608,422.222308254122 L542.5348946306632,423.1304153104802 M542.5348946306632,423.1304153104802 L544.5674044190555,424.20399260552614 M544.5674044190555,424.20399260552614 L546.590347720242,425.43935160824003 M546.590347720242,425.43935160824003 L548.5959572150201,426.83212072696705 M548.5959572150201,426.83212072696705 L550.5765026058259,428.3772530936027 M550.5765026058259,428.3772530936027 L552.5243265952666,430.06903682863947 M552.5243265952666,430.06903682863947 L554.4318805116272,431.9013140166357 M554.4318805116272,431.9013140166357 L556.2917533153377,433.8670759826677 M556.2917533153377,433.8670759826677 L558.0967128669041,435.95899855405685 M558.0967128669041,435.95899855405685 L559.8397317759525,438.16903887059806 M559.8397317759525,438.16903887059806 L561.514027546878,440.4888692936263 M561.514027546878,440.4888692936263 L563.1130833907889,442.9094231964468 M563.1130833907889,442.9094231964468 L564.6306923238935,445.4214886035308 M564.6306923238935,445.4214886035308 L566.060972081606,448.01535784482087 M566.060972081606,448.01535784482087 L567.3983977323934,450.6809006294555 M567.3983977323934,450.6809006294555 L568.6378283455824,453.4077907404944 M568.6378283455824,453.4077907404944 L569.7745290631974,456.1855759298192 M569.7745290631974,456.1855759298192 L570.8041826865281,459.00333139759516 M570.8041826865281,459.00333139759516 L571.7229253078618,461.8502533507961 M571.7229253078618,461.8502533507961 L572.5273437495468,464.7153075866564 M572.5273437495468,464.7153075866564 L573.214504205743,467.58740769068817 M573.214504205743,467.58740769068817 L573.7819502119642,470.45552828783934 M573.7819502119642,470.45552828783934 L574.2277206674761,473.3086722163046 M574.2277206674761,473.3086722163046 L574.5503432846801,476.13598117468706 M574.5503432846801,476.13598117468706 L574.748855029301,478.9266012933697 M574.748855029301,478.9266012933697 L574.8227852363727,481.6700947664361 M574.8227852363727,481.6700947664361 L574.7721612162239,484.35609318334537 M574.7721612162239,484.35609318334537 L574.597503385132,486.9745081314003 M574.597503385132,486.9745081314003 L574.2998197016111,489.5157386691992 M574.2998197016111,489.5157386691992 L573.8805850253867,491.9703126893014 M573.8805850253867,491.9703126893014 L573.3417499012625,494.32930145228215 M573.3417499012625,494.32930145228215 L572.6857079291908,496.58415643682974 M572.6857079291908,496.58415643682974 L571.9152930209035,498.72681124502014 M571.9152930209035,498.72681124502014 L571.0337517380374,500.7496199833481 M571.0337517380374,500.7496199833481 L570.0447380543962,502.64545522867155 M570.0447380543962,502.64545522867155 L568.9522798912814,504.4078416686074 M568.9522798912814,504.4078416686074 L567.7607717171815,506.03059901934057 M567.7607717171815,506.03059901934057 L566.4749418198577,507.5083740976361 M566.4749418198577,507.5083740976361 L565.0998338455098,508.8362765974287 M565.0998338455098,508.8362765974287 L563.6407839733988,510.0099133415972 M563.6407839733988,510.0099133415972 L562.1033976823385,511.02556980531324 M562.1033976823385,511.02556980531324 L560.4935205558127,511.8802378653796 M560.4935205558127,511.8802378653796 L558.8172205327122,512.5712523427975 M558.8172205327122,512.5712523427975 L557.0807586193176,513.0968135180044 M557.0807586193176,513.0968135180044 L555.2905660161614,513.4555218127762 M555.2905660161614,513.4555218127762 L553.4532193762437,513.6467518692281 M553.4532193762437,513.6467518692281 L551.5754149676535,513.6702367002893 M551.5754149676535,513.6702367002893 L549.6639480112557,513.5265406199812 M549.6639480112557,513.5265406199812 L547.7256849735274,513.2166434084774 M547.7256849735274,513.2166434084774 L545.7675433312419,512.7421184874199 M545.7675433312419,512.7421184874199 L543.7964671883279,512.1051127441644 M543.7964671883279,512.1051127441644 L541.8194060421772,511.3083283878492 M366.232259068403,490.1537248325303 L368.2553050552809,491.1862495735836 M368.2553050552809,491.1862495735836 L370.28662884521884,492.39215315771025 M370.28662884521884,492.39215315771025 L372.31846535667074,493.7672749353993 M372.31846535667074,493.7672749353993 L374.3430096641218,495.30673283562555 M374.3430096641218,495.30673283562555 L376.3524498991025,497.0049326323782 M376.3524498991025,497.0049326323782 L378.3390032298236,498.8555800479452 M378.3390032298236,498.8555800479452 L380.2949638347219,500.85191159508776 M380.2949638347219,500.85191159508776 L382.21270774415143,502.98627192506376 M382.21270774415143,502.98627192506376 L384.08476496682783,505.250676454194 M384.08476496682783,505.250676454194 L385.9038214162372,507.6363904321968 M385.9038214162372,507.6363904321968 L387.6627839558729,510.1343855611708 M387.6627839558729,510.1343855611708 L389.3547744813337,512.7348656587915 M389.3547744813337,512.7348656587915 L390.973208121188,515.4278909156756 M390.973208121188,515.4278909156756 L392.51178766319504,518.2030122885395 M392.51178766319504,518.2030122885395 L393.964539984004,521.0493502087444 M393.964539984004,521.0493502087444 L395.3258556528649,523.955833955069 M395.3258556528649,523.955833955069 L396.5905148095345,526.9112766227165 M396.5905148095345,526.9112766227165 L397.75367844865116,529.9040137092322 M397.75367844865116,529.9040137092322 L398.8109579783352,532.9225270026861 M398.8109579783352,532.9225270026861 L399.75839235466714,535.9550774539811 M399.75839235466714,535.9550774539811 L400.59248639331804,538.9898938457823 M400.59248639331804,538.9898938457823 L401.3102154496297,542.0152920988023 M401.3102154496297,542.0152920988023 L401.9090409239129,545.0196424595534 M401.9090409239129,545.0196424595534 L402.38691024804757,547.9914857501693 M402.38691024804757,547.9914857501693 L402.74226865441835,550.919394242389 M402.74226865441835,550.919394242389 L402.97406656647263,553.7924021811019 M402.97406656647263,553.7924021811019 L403.08174445834493,556.599643786398 M403.08174445834493,556.599643786398 L403.0652400339901,559.3305737640467 M403.0652400339901,559.3305737640467 L402.92499449149943,561.9751842713612 M402.92499449149943,561.9751842713612 L402.6619110984833,564.5236291277115 M402.6619110984833,564.5236291277115 L402.2773873697463,566.9666577116802 M402.2773873697463,566.9666577116802 L401.7732733719138,569.2954428648127 M401.7732733719138,569.2954428648127 L401.1518744461407,571.5016871197648 M401.1518744461407,571.5016871197648 L400.41592023411266,573.5775568175529 M400.41592023411266,573.5775568175529 L399.56856474900974,575.5157838957359 M399.56856474900974,575.5157838957359 L398.6133612015607,577.3098035783719 M398.6133612015607,577.3098035783719 L397.5542334361693,578.9533804219678 M397.5542334361693,578.9533804219678 L396.3954747967779,580.4411621596889 M396.3954747967779,580.4411621596889 L395.14170849991575,581.7682976811226 M395.14170849991575,581.7682976811226 L393.797867088123,582.9304711442567 M393.797867088123,582.9304711442567 L392.3691801587531,583.9240897802814 M392.3691801587531,583.9240897802814 L390.8611474009702,584.7463107548405 M390.8611474009702,584.7463107548405 L389.27949985613066,585.3946601149198 M389.27949985613066,585.3946601149198 L387.63020194205774,585.867576254524 M387.63020194205774,585.867576254524 L385.9194019066671,586.1639223268287 M385.9194019066671,586.1639223268287 L384.1534297124781,586.2833748962837 M384.1534297124781,586.2833748962837 L382.33874761408504,586.2259880245965 M382.33874761408504,586.2259880245965 L380.481957946541,585.9926852722685 M380.481957946541,585.9926852722685 L378.58975200689054,585.5848238509919 M378.58975200689054,585.5848238509919 L376.6689010837757,585.0043791139879 M376.6689010837757,585.0043791139879 L374.7262318969215,584.2539219094745 M374.7262318969215,584.2539219094745 L372.7686052534855,583.336598268003 M541.8194060421772,511.3083283878492 L539.8432910373774,510.3549067743272 M539.8432910373774,510.3549067743272 L537.8750168645793,509.2486087135419 M537.8750168645793,509.2486087135419 L535.9214184548723,507.9936024259374 M535.9214184548723,507.9936024259374 L533.9892520103474,506.5945475555202 M533.9892520103474,506.5945475555202 L532.0851768348446,505.0565827632197 M532.0851768348446,505.0565827632197 L530.2157352261897,503.3853135645171 M530.2157352261897,503.3853135645171 L528.3873317983656,501.5866062336661 M528.3873317983656,501.5866062336661 L526.6062238577198,499.6669722992611 M526.6062238577198,499.6669722992611 L524.8784936759668,497.633069334606 M524.8784936759668,497.633069334606 L523.21004257142,495.4920893544712 M523.21004257142,495.4920893544712 L521.6065637844134,493.2513595569308 M521.6065637844134,493.2513595569308 L520.0735423450768,490.91878428770303 M520.0735423450768,490.91878428770303 L518.6162204969906,488.5022983205971 M518.6162204969906,488.5022983205971 L517.2396006246757,486.0102147399225 M517.2396006246757,486.0102147399225 L515.9484259139421,483.4511743266984 M515.9484259139421,483.4511743266984 L514.7471626229035,480.83394982358976 M514.7471626229035,480.83394982358976 L513.6399870719018,478.1673989654758 M513.6399870719018,478.1673989654758 L512.6307881931949,475.46081657052383 M512.6307881931949,475.46081657052383 L511.72313027677194,472.7233892514915 M511.72313027677194,472.7233892514915 L510.9202653854586,469.9645526997007 M510.9202653854586,469.9645526997007 L510.22510598874953,467.19384278683367 M510.22510598874953,467.19384278683367 L509.64022517587125,464.4208071312955 M509.64022517587125,464.4208071312955 L509.16783908461457,461.655056345465 M509.16783908461457,461.655056345465 L508.8098076845122,458.906175497226 M508.8098076845122,458.906175497226 L508.5676134646162,456.1838725875124 M508.5676134646162,456.1838725875124 L508.4423622150804,453.49759267286436 M508.4423622150804,453.49759267286436 L508.434776513188,450.85686935354965 M508.434776513188,450.85686935354965 L508.5451862323026,448.27113111672685 M508.5451862323026,448.27113111672685 L508.7735183258826,445.74950493360234 M508.7735183258826,445.74950493360234 L509.11931125203796,443.3011765682983 M509.11931125203796,443.3011765682983 L509.5816848333186,440.93498518726 M509.5816848333186,440.93498518726 L510.1593601759811,438.6595850483401 M510.1593601759811,438.6595850483401 L510.8506454154227,436.48334270651327 M510.8506454154227,436.48334270651327 L511.6534479239648,434.41439421119753 M511.6534479239648,434.41439421119753 L512.5652618991817,432.4605405470587 M512.5652618991817,432.4605405470587 L513.5831825331277,430.62910161388663 M513.5831825331277,430.62910161388663 L514.7039043897893,428.9272667546206 M514.7039043897893,428.9272667546206 L515.923728653286,427.36153992275007 M515.923728653286,427.36153992275007 L517.2385735545137,425.9380927854091 M517.2385735545137,425.9380927854091 L518.6439824577441,424.6627130468005 M518.6439824577441,424.6627130468005 L520.1351315481401,423.5405983524393 M520.1351315481401,423.5405983524393 L521.7068476417827,422.5763045114048 M521.7068476417827,422.5763045114048 L523.353621073019,421.7740994439689 M523.353621073019,421.7740994439689 L525.06961996101,421.13739907142116 M525.06961996101,421.13739907142116 L526.8487125992123,420.66922609357783 M526.8487125992123,420.66922609357783 L528.6844836168699,420.3717972025242 M528.6844836168699,420.3717972025242 L530.5702613409828,420.24693367734744 M530.5702613409828,420.24693367734744 L532.4991339299461,420.29554397394054 M532.4991339299461,420.29554397394054 L534.4639820969095,420.51803688858826 M534.4639820969095,420.51803688858826 L536.4575013954847,420.91411449953677 M536.4575013954847,420.91411449953677 L538.472232428849,421.48277379341016 M538.472232428849,421.48277379341016 L540.5005896907608,422.222308254122 M372.7686052534855,583.336598268003 L370.80288654422,582.2560067859126 M370.80288654422,582.2560067859126 L368.83593920886517,581.0163856597871 M368.83593920886517,581.0163856597871 L366.87459009290365,579.6223902299666 M366.87459009290365,579.6223902299666 L364.9256164738771,578.0791796767734 M364.9256164738771,578.0791796767734 L362.995728212165,576.392403236559 M362.995728212165,576.392403236559 L361.0915480675766,574.5681866745679 M361.0915480675766,574.5681866745679 L359.2195800022065,572.6129165000629 M359.2195800022065,572.6129165000629 L357.3862231138156,570.5336408602116 M357.3862231138156,570.5336408602116 L355.59771579733757,568.3375478194307 M355.59771579733757,568.3375478194307 L353.8601535061885,566.0323706386248 M353.8601535061885,566.0323706386248 L352.17943937091184,563.6259704777144 M352.17943937091184,563.6259704777144 L350.56131074260384,561.1267979673516 M350.56131074260384,561.1267979673516 L349.0112738117093,558.5433218389252 M349.0112738117093,558.5433218389252 L347.5346274889748,555.8843925808758 M347.5346274889748,555.8843925808758 L346.13644213125906,553.1591894424093 M346.13644213125906,553.1591894424093 L344.82153114413495,550.377016083482 M344.82153114413495,550.377016083482 L343.5944359287413,547.547251652077 M343.5944359287413,547.547251652077 L342.45944957409245,544.6797190681692 M342.45944957409245,544.6797190681692 L341.42054866777227,541.78411503931 M341.42054866777227,541.78411503931 L340.48142672375354,538.8703841968288 M340.48142672375354,538.8703841968288 L339.6454590367192,535.9485632481108 M339.6454590367192,535.9485632481108 L338.9156976839815,533.0286893397171 M338.9156976839815,533.0286893397171 L338.29485764385447,530.1208534865275 M338.29485764385447,530.1208534865275 L337.7853122319271,527.2351087810487 M337.7853122319271,527.2351087810487 L337.3890813095619,524.3816251838361 M337.3890813095619,524.3816251838361 L337.1078088552565,521.5702870679011 M337.1078088552565,521.5702870679011 L336.9427774630071,518.8110605567728 M336.9427774630071,518.8110605567728 L336.8948873722193,516.1137913077443 M336.8948873722193,516.1137913077443 L336.96463457477125,513.4879992069476 M336.96463457477125,513.4879992069476 L337.15214591118865,510.94325573874954 M337.15214591118865,510.94325573874954 L337.45712537753326,508.488759345434 M337.45712537753326,508.488759345434 L337.8788825807003,506.13350531223654 M337.8788825807003,506.13350531223654 L338.4163123789417,503.88617777705815 M338.4163123789417,503.88617777705815 L339.0679095947486,501.75520997264215 M339.0679095947486,501.75520997264215 L339.83175027650765,499.74867427433185 M339.83175027650765,499.74867427433185 L340.7054961384864,497.87412980626004 M340.7054961384864,497.87412980626004 L341.6864133849366,496.13898866563085 M341.6864133849366,496.13898866563085 L342.7713460596194,494.54993549881095 M342.7713460596194,494.54993549881095 L343.95674666791916,493.11329673652745 M343.95674666791916,493.11329673652745 L345.2386803852935,491.8349863516147 M345.2386803852935,491.8349863516147 L346.612819703304,490.7202898991269 M346.612819703304,490.7202898991269 L348.0744581046385,489.7738102950919 M348.0744581046385,489.7738102950919 L349.61854317706775,488.9998380322883 M349.61854317706775,488.9998380322883 L351.23965642721305,488.40176055431925 M351.23965642721305,488.40176055431925 L352.93206191386923,487.98254252011054 M352.93206191386923,487.98254252011054 L354.6896970425405,487.7442935050366 M354.6896970425405,487.7442935050366 L356.50622322980473,487.68869811550115 M356.50622322980473,487.68869811550115 L358.37501061679177,487.8164740633878 M358.37501061679177,487.8164740633878 L360.28919420135145,488.1278052532614 M360.28919420135145,488.1278052532614 L362.2416830981506,488.6221250927291 M362.2416830981506,488.6221250927291 L364.22518994627177,489.29811865808085 M364.22518994627177,489.29811865808085 L366.232259068403,490.1537248325303" stroke="black"  stroke-width="4"  fill="red"/>
<path d="M346.0683962598292,466.5373185009381 L305.52910239517485,-67.25617064227134 M257.2203541651173,500.12228477159283 L199.6503113714305,-48.7113727830145 M346.0683962598292,466.5373185009381 L348.0788043757291,467.5295525970315 M348.0788043757291,467.5295525970315 L349.93500367535523,468.5775574040596 M349.93500367535523,468.5775574040596 L351.6302685426905,469.6779822988542 M351.6302685426905,469.6779822988542 L353.15835971533954,470.8272817168619 M353.15835971533954,470.8272817168619 L354.5135075621082,472.02173913268655 M354.5135075621082,472.02173913268655 L355.69053616629424,473.2574374278249 M355.69053616629424,473.2574374278249 L356.6847356879207,474.53032930070304 M356.6847356879207,474.53032930070304 L357.49205287538575,475.83617829466084 M357.49205287538575,475.83617829466084 L358.10896921565995,477.170631691603 M358.10896921565995,477.170631691603 L358.5325978849215,478.5291969515001 M358.5325978849215,478.5291969515001 L358.7607026751465,479.9072611248039 M358.7607026751465,479.9072611248039 L358.7917043986479,481.30010472284215 M358.7917043986479,481.30010472284215 L358.6246679461097,482.7029270447261 M358.6246679461097,482.7029270447261 L358.25941134600436,484.11082844849454 M358.25941134600436,484.11082844849454 L357.69635205474697,485.5188917545347 M357.69635205474697,485.5188917545347 L356.93669867223986,486.9221238057054 M356.93669867223986,486.9221238057054 L355.9823144267563,488.31552652688333 M355.9823144267563,488.31552652688333 L354.83586009362364,489.6940773646158 M354.83586009362364,489.6940773646158 L353.50061014000255,491.05280123254363 M353.50061014000255,491.05280123254363 L351.98065371519107,492.38671883424314 M351.98065371519107,492.38671883424314 L350.2807596213622,493.6909236097781 M350.2807596213622,493.6909236097781 L348.40641065138993,494.9605763553692 M348.40641065138993,494.9605763553692 L346.36375588839957,496.1909444693209 M346.36375588839957,496.1909444693209 L344.1596425287419,497.3773975565733 M344.1596425287419,497.3773975565733 L341.8016206304334,498.5154325197808 M341.8016206304334,498.5154325197808 L339.29778862129916,499.600728543278 M339.29778862129916,499.600728543278 L336.6569628613731,500.62910743364876 M336.6569628613731,500.62910743364876 L333.88844932826095,501.5966185874712 M333.88844932826095,501.5966185874712 L331.0021878743796,502.499488908531 M331.0021878743796,502.499488908531 L328.00854379577356,503.33422005625795 M328.00854379577356,503.33422005625795 L324.9184267693754,504.0975275235974 M324.9184267693754,504.0975275235974 L321.74315359381984,504.7864106494791 M321.74315359381984,504.7864106494791 L318.494393463257,505.39815745922385 M318.494393463257,505.39815745922385 L315.1841827887258,505.93034072768785 M315.1841827887258,505.93034072768785 L311.82482616756204,506.38084446097713 M311.82482616756204,506.38084446097713 L308.4289086194579,506.7478589545198 M308.4289086194579,506.7478589545198 L305.0090905446236,507.0299419697716 M305.0090905446236,507.0299419697716 L301.5782434540127,507.2259446003137 M301.5782434540127,507.2259446003137 L298.1492453966424,507.33509371016066 M298.1492453966424,507.33509371016066 L294.73502991068995,507.3569389064314 M294.73502991068995,507.3569389064314 L291.348382833629,507.2914132057991 M291.348382833629,507.2914132057991 L288.00208758335583,507.1387604593131 M288.00208758335583,507.1387604593131 L284.7086912673461,506.8996009569372 M284.7086912673461,506.8996009569372 L281.4805398567845,506.57488944191425 M281.4805398567845,506.57488944191425 L278.329694037903,506.1659218569068 M278.329694037903,506.1659218569068 L275.2678743618266,505.67433357018257 M275.2678743618266,505.67433357018257 L272.30639436084857,505.10209033180325 M272.30639436084857,505.10209033180325 L269.4562090577822,504.45144772910163 M269.4562090577822,504.45144772910163 L266.72769999906126,503.7249971089301 M266.72769999906126,503.7249971089301 L264.1308241804578,502.92558483067467 M264.1308241804578,502.92558483067467 L261.6749057942904,502.0563588421697 M261.6749057942904,502.0563588421697 L259.3687076416069,501.12071252274757 M259.3687076416069,501.12071252274757 L257.2203541651173,500.12228477159283 M305.52910239517485,-67.25617064227134 L307.82963390856554,-66.71124761742641 M307.82963390856554,-66.71124761742641 L309.9482787422884,-66.1355010201724 M309.9482787422884,-66.1355010201724 L311.87729978610577,-65.53074049963874 M311.87729978610577,-65.53074049963874 L313.6095170244764,-64.89888398717261 M313.6095170244764,-64.89888398717261 L315.1382876405042,-64.24194502758183 M315.1382876405042,-64.24194502758183 L316.4576533414298,-63.562049585380294 M316.4576533414298,-63.562049585380294 L317.5621893400968,-62.86139780940886 M317.5621893400968,-62.86139780940886 L318.4472312056265,-62.14229695417083 M318.4472312056265,-62.14229695417083 L319.10873100029346,-61.40712170787964 M319.10873100029346,-61.40712170787964 L319.54337370695373,-60.65832756991739 M319.54337370695373,-60.65832756991739 L319.74860077539245,-59.8984405372816 M319.74860077539245,-59.8984405372816 L319.7226194636154,-59.13004979156932 M319.7226194636154,-59.13004979156932 L319.4643891715487,-58.35579400726391 M319.4643891715487,-58.35579400726391 L318.9737526141575,-57.57837136437439 M318.9737526141575,-57.57837136437439 L318.25125511097247,-56.80049477050437 M318.25125511097247,-56.80049477050437 L317.2983745040955,-56.02492422348172 M317.2983745040955,-56.02492422348172 L316.1173610558943,-55.25442759476215 M316.1173610558943,-55.25442759476215 L314.71140859815625,-54.49179140081327 M314.71140859815625,-54.49179140081327 L313.0844386873294,-53.73978090037917 M313.0844386873294,-53.73978090037917 L311.24134113121204,-53.001168504368025 M311.24134113121204,-53.001168504368025 L309.1878148055693,-52.27869094907345 M309.1878148055693,-52.27869094907345 L306.9304104502255,-51.575051949174565 M306.9304104502255,-51.575051949174565 L304.4764749837832,-50.89290007191062 M304.4764749837832,-50.89290007191062 L301.83419081987165,-50.23483073265635 M301.83419081987165,-50.23483073265635 L299.01258179274157,-49.60337180153698 M299.01258179274157,-49.60337180153698 L296.0213303782775,-49.000952556228015 M296.0213303782775,-49.000952556228015 L292.8709793423276,-48.42992511263725 M292.8709793423276,-48.42992511263725 L289.57266003463843,-47.89251665441259 M289.57266003463843,-47.89251665441259 L286.1382641433522,-47.39085661617145 M286.1382641433522,-47.39085661617145 L282.58019370633906,-46.926922026628006 M282.58019370633906,-46.926922026628006 L278.9115029477348,-46.50257071882055 M278.9115029477348,-46.50257071882055 L275.14573230993454,-46.11950179970256 M275.14573230993454,-46.11950179970256 L271.2968422141173,-45.77925234698142 M271.2968422141173,-45.77925234698142 L267.37922866285555,-45.48319902936623 M267.37922866285555,-45.48319902936623 L263.4076031676607,-45.23254285234049 M263.4076031676607,-45.23254285234049 L259.3970047597091,-45.02831143370577 M259.3970047597091,-45.02831143370577 L255.36255279721695,-44.87132454594354 M255.36255279721695,-44.87132454594354 L251.31960740144552,-44.76223502422266 M251.31960740144552,-44.76223502422266 L247.2835212406723,-44.7014826182741 M247.2835212406723,-44.7014826182741 L243.26969663544907,-44.68932331357746 M243.26969663544907,-44.68932331357746 L239.29333988985155,-44.7257954575569 M239.29333988985155,-44.7257954575569 L235.36963280205853,-44.810760134136785 M235.36963280205853,-44.810760134136785 L231.5134506689435,-44.94386471204268 M231.5134506689435,-44.94386471204268 L227.73940286346976,-45.12456636348605 M227.73940286346976,-45.12456636348605 L224.06173054650492,-45.352128539926866 M224.06173054650492,-45.352128539926866 L220.4942395320588,-45.62562226920528 M220.4942395320588,-45.62562226920528 L217.05021973960885,-45.9439315716121 M217.05021973960885,-45.9439315716121 L213.74250251621595,-46.305776458429534 M213.74250251621595,-46.305776458429534 L210.58320342377786,-46.709687893159526 M210.58320342377786,-46.709687893159526 L207.58390078969222,-47.154053247634806 M207.58390078969222,-47.154053247634806 L204.7553871389417,-47.63709099181307 M204.7553871389417,-47.63709099181307 L202.10775600860532,-48.15688253038138 M202.10775600860532,-48.15688253038138 L199.6503113714305,-48.7113727830145 M257.2203541651173,500.12228477159283 L255.23730623897637,499.0649410164614 M255.23730623897637,499.0649410164614 L253.42636219462068,497.9527445564937 M253.42636219462068,497.9527445564937 L251.7936109170877,496.789946837973 M251.7936109170877,496.789946837973 L250.34441226673653,495.58096876007147 M250.34441226673653,495.58096876007147 L249.08342891132176,494.33036362893773 M249.08342891132176,494.33036362893773 L248.01451149480965,493.0428368895999 M248.01451149480965,493.0428368895999 L247.14085473348626,491.7231619438505 M247.14085473348626,491.7231619438505 L246.46481731767824,490.3762318634022 M246.46481731767824,490.3762318634022 L245.98807694289786,489.00697496248847 M245.98807694289786,489.00697496248847 L245.7115538198889,487.6203716785228 M245.7115538198889,487.6203716785228 L245.6354201878587,486.2214280351966 M245.6354201878587,486.2214280351966 L245.75912304720268,484.8151562280119 M245.75912304720268,484.8151562280119 L246.081428180734,483.40654514412097 M246.081428180734,483.40654514412097 L246.6003376309754,482.00057556956557 M246.6003376309754,482.00057556956557 L247.31328116562892,480.6021376101444 M247.31328116562892,480.6021376101444 L248.2169464729068,479.21608948953076 M248.2169464729068,479.21608948953076 L249.3074505697723,477.8471885166818 M249.3074505697723,477.8471885166818 L250.5802221278022,476.50011353778257 M250.5802221278022,476.50011353778257 L252.0302156385502,475.1793989034363 M252.0302156385502,475.1793989034363 L253.65173032779222,473.8894906324511 M253.65173032779222,473.8894906324511 L255.43857205866087,472.63467827428497 M255.43857205866087,472.63467827428497 L257.3840369915391,471.4191082392292 M257.3840369915391,471.4191082392292 L259.4809772777191,470.2467550223057 M259.4809772777191,470.2467550223057 L261.7217820580908,469.12143514673636 M261.7217820580908,469.12143514673636 L264.09838498591057,468.04679345654813 M264.09838498591057,468.04679345654813 L266.60242487267055,467.0262621318239 M266.60242487267055,467.0262621318239 L269.2250811017048,466.06310942854066 M269.2250811017048,466.06310942854066 L271.9573007353904,465.1603713443907 M271.9573007353904,465.1603713443907 L274.7896520294843,464.32091013710743 M274.7896520294843,464.32091013710743 L277.7125246336926,463.5473351695068 M277.7125246336926,463.5473351695068 L280.71600139691026,462.8420708922008 M280.71600139691026,462.8420708922008 L283.7899813350509,462.2073026938929 M283.7899813350509,462.2073026938929 L286.9242160312916,461.6449829009405 M286.9242160312916,461.6449829009405 L290.108276838611,461.15684397340175 M290.108276838611,461.15684397340175 L293.3316300022588,460.74438287841866 M293.3316300022588,460.74438287841866 L296.5836021285957,460.40887339304214 M296.5836021285957,460.40887339304214 L299.85355246148055,460.1513169218946 M299.85355246148055,460.1513169218946 L303.13071608040417,459.97251582887293 M303.13071608040417,459.97251582887293 L306.4043731234319,459.8730024715886 M306.4043731234319,459.8730024715886 L309.6637740036461,459.8530906458337 M309.6637740036461,459.8530906458337 L312.8983049201232,459.91282197322937 M312.8983049201232,459.91282197322937 L316.0973220087766,460.05203239791206 M316.0973220087766,460.05203239791206 L319.2503462123358,460.2702913616992 M319.2503462123358,460.2702913616992 L322.34700373801957,460.56693770294027 M322.34700373801957,460.56693770294027 L325.3770809423821,460.94106982109173 M325.3770809423821,460.94106982109173 L328.33055286277374,461.3915423136513 M328.33055286277374,461.3915423136513 L331.19762548992605,461.9169680316609 M331.19762548992605,461.9169680316609 L333.96867156986696,462.5157480297306 M333.96867156986696,462.5157480297306 L336.6344168942677,463.18602105505994 M336.6344168942677,463.18602105505994 L339.185787422713,463.92572867111306 M339.185787422713,463.92572867111306 L341.61409481160354,464.73256234939157 M341.61409481160354,464.73256234939157 L343.9109628502879,465.6040047295155 M343.9109628502879,465.6040047295155 L346.0683962598292,466.5373185009381 M199.6503113714305,-48.7113727830145 L197.39153948471917,-49.29838137666542 M197.39153948471917,-49.29838137666542 L195.3391125814617,-49.91561919299909 M195.3391125814617,-49.91561919299909 L193.49983547246052,-50.56069438389818 M193.49983547246052,-50.56069438389818 L191.87962518762546,-51.23112334370779 M191.87962518762546,-51.23112334370779 L190.48355247762643,-51.92435181590241 M190.48355247762643,-51.92435181590241 L189.31570784944736,-52.637744476741545 M189.31570784944736,-52.637744476741545 L188.37939250141852,-53.36863206108666 M188.37939250141852,-53.36863206108666 L187.67690622353604,-54.11428312069103 M187.67690622353604,-54.11428312069103 L187.20973747134445,-54.87195113814386 M187.20973747134445,-54.87195113814386 L186.97847538776335,-55.638865454502195 M186.97847538776335,-55.638865454502195 L186.98282565396102,-56.41224617620145 M186.98282565396102,-56.41224617620145 L187.22164138579978,-57.1893150615345 M187.22164138579978,-57.1893150615345 L187.6929795986425,-57.967311889042946 M187.6929795986425,-57.967311889042946 L188.39400649663503,-58.74348606956636 M188.39400649663503,-58.74348606956636 L189.32122992606904,-59.51514218182257 M189.32122992606904,-59.51514218182257 L190.47029939278113,-60.279607378988715 M190.47029939278113,-60.279607378988715 L191.83621378240062,-61.03426929892777 M191.83621378240062,-61.03426929892777 L193.41318456131256,-61.77656343030088 M193.41318456131256,-61.77656343030088 L195.1948927258621,-62.50400920268993 M195.1948927258621,-62.50400920268993 L197.17427522911552,-63.214178687474316 M197.17427522911552,-63.214178687474316 L199.34372039947766,-63.90473374311813 M199.34372039947766,-63.90473374311813 L201.69504928959407,-64.57341823644668 M201.69504928959407,-64.57341823644668 L204.21959535148375,-65.2180734139094 M204.21959535148375,-65.2180734139094 L206.90818209821143,-65.8366297463354 M206.90818209821143,-65.8366297463354 L209.7511332948381,-66.42711397473857 M209.7511332948381,-66.42711397473857 L212.7384633122573,-66.98767111721821 M212.7384633122573,-66.98767111721821 L215.85968176575034,-67.5165371747384 M215.85968176575034,-67.5165371747384 L219.1040625481529,-68.01207615305492 M219.1040625481529,-68.01207615305492 L222.46046853566523,-68.47274742690405 M222.46046853566523,-68.47274742690405 L225.9175891812663,-68.89714869833637 M225.9175891812663,-68.89714869833637 L229.46378558539482,-69.283978216805 M229.46378558539482,-69.283978216805 L233.08723589149741,-69.63206404742442 M233.08723589149741,-69.63206404742442 L236.77597573821623,-69.94036035664539 M236.77597573821623,-69.94036035664539 L240.51785743757367,-70.20793979495016 M240.51785743757367,-70.20793979495016 L244.30063658067297,-70.43400172143737 M244.30063658067297,-70.43400172143737 L248.1119289828098,-70.61786515735679 M248.1119289828098,-70.61786515735679 L251.93941216769267,-70.7589954777896 M251.93941216769267,-70.7589954777896 L255.77063606850493,-70.85696401186073 M255.77063606850493,-70.85696401186073 L259.59322200472474,-70.91148676510164 M259.59322200472474,-70.91148676510164 L263.39477022322944,-70.92239611532256 M263.39477022322944,-70.92239611532256 L267.16305341181464,-70.88967012224867 M267.16305341181464,-70.88967012224867 L270.8858173381737,-70.81339608207423 M270.8858173381737,-70.81339608207423 L274.5510090016144,-70.69380389118413 M274.5510090016144,-70.69380389118413 L278.14670300764146,-70.53124646762893 M278.14670300764146,-70.53124646762893 L281.66116391302864,-70.32620528007413 M281.66116391302864,-70.32620528007413 L285.08287759911855,-70.07929238124728 M285.08287759911855,-70.07929238124728 L288.40059853301375,-69.79124952091485 M288.40059853301375,-69.79124952091485 L291.60327163672696,-69.46293200854785 M291.60327163672696,-69.46293200854785 L294.6802505153989,-69.09533673090999 M294.6802505153989,-69.09533673090999 L297.62111454000564,-68.68956680772447 M297.62111454000564,-68.68956680772447 L300.4158867296577,-68.24686100615264 M300.4158867296577,-68.24686100615264 L303.0549450137588,-67.76857154319595 M303.0549450137588,-67.76857154319595 L305.52910239517485,-67.25617064227134" stroke="black"  stroke-width="4"  fill="red"/></svg>